<svg enable-background="new 0 0 105 24" viewBox="0 0 105 24" xmlns="http://www.w3.org/2000/svg"><g fill="#aedcff"><g clip-rule="evenodd" fill-rule="evenodd"><path d="m27.8500004 22.9999924c.0444069.0938816.0682716.1961594.0699997.2999992-.0108318.3898125-.3300362.7001514-.7199993.7000008h-15.8300009c-.3882504.0000381-.7045326-.3117886-.71-.7000008.0004034-.108387.0279045-.2149525.0799999-.3099995l3.5500002-6c.2192402-.3402538.5952396-.5470543 1-.5499992h8.000001c.4047604.0029449.7807598.2097454 1 .5499992.0336399.0477238.0637207.0978603.0900002.1499996z"/><path d="m22.2900009 14.7799931c-.100153.0496092-.2086697.0801296-.3199997.0900002h-7.0900011-.0500002c-.407692-.0013809-.7857904-.2131157-1-.5600004l-4-6.7800002c-.1795816-.3411431-.1795816-.748857 0-1.0900002l3.5799999-6.1299992c.0644312-.0898327.1503944-.1620422.25-.21.3384161-.2087973.7820196-.1037208.9908171.2346949.0031242.0050635.0061855.0101656.0091829.015305l7.9099998 13.46c.1942215.3278675.0858803.7511044-.2419872.9453259-.0026608.0015764-.005331.0031338-.0080128.004674z"/><path d="m12.75 16.6299915-4 6.7800007c-.2168903.3440742-.5933037.5548668-1 .5599995h-7.08c-.3827162-.0162506-.6812891-.3371048-.67-.7199993.0073104-.1131191.0415996-.2228451.1-.3199997l7.9-13.4599991c.2108488-.3410645.6573238-.4482183 1-.2399998.0923214.0506496.1711836.122654.2299995.21l3.5500002 6c.2120447.3713875.2004891.8297663-.0299997 1.1899977z"/></g><path d="m38.378418 16.6602707c-.5742188 0-1.0957031-.1054688-1.5644531-.3164062s-.8686523-.5195303-1.199707-.9267569-.5874023-.9111328-.769043-1.5117188-.2724609-1.2910156-.2724609-2.0703125c0-.75.0966797-1.4223633.2900391-2.0170898s.4599609-1.0986328.7998047-1.5117188.7426758-.7294922 1.2084961-.9492188.9741211-.3295898 1.5249023-.3295898c.4511719 0 .8408203.0805664 1.1689453.2416992s.5917969.3735352.7910156.637207v-3.4013671l2.3378906-1.0634766v12.9990225h-2.3378907v-.6679678c-.1875.281249-.4467773.499999-.777832.6542959-.3310547.1552735-.730957.2333985-1.199707.2333985zm.3779297-2.2499991c.3808594 0 .7001953-.0644531.9580078-.1933594s.4716797-.3105469.6416016-.5449219v-3.6386719c-.0585938-.0878906-.1376953-.1772461-.2373047-.2680664s-.2182617-.1728516-.355957-.2460938-.2900391-.1318359-.4570312-.1757812-.3500977-.065918-.5493164-.065918c-.5917969 0-1.0458984.2197266-1.3623047.6591797s-.4746094 1.0722656-.4746094 1.8984375c0 .3925781.0395508.7470703.1186523 1.0634766s.1962891.5878906.3515625.8134766.347168.3984375.5756836.5175781c.2285156.1210938.4921874.1806641.7910156.1806641zm16.1635742 2.0302725v-6.4775381c0-.0703125.0009766-.1523438.0048828-.2460938.0019531-.09375.0048828-.1889648.0078125-.2856445s.0058594-.1860352.0097656-.2680664c.0019531-.0820312.0068359-.1464844.0126953-.1933594-.0644531.1992188-.1279297.3779297-.1884766.5361328-.0625.1582031-.125.3105469-.1894531.4570312l-3.059082 6.6972647-3.0761719-6.6972646c-.0644531-.1464844-.1274414-.2988281-.1889648-.4570312s-.1245117-.3369141-.1889649-.5361328c.0058594.046875.0102539.1113281.0131836.1933594s.0058594.1713867.0087891.2680664.0058594.1918945.0087891.2856445.0043945.1757812.0043945.2460938v6.4775381h-2.4345703v-12.6035147h2.4697266l3.09375 6.9521484c.0644531.1523438.1230469.2973633.1757812.4350586s.1025391.2797852.1494141.4262695c.046875-.1464844.0966797-.2885742.1494141-.4262695s.1113281-.2827148.1757812-.4350586l3.1469727-6.9521484h2.3203125v12.6035147h-2.4257813zm10.6259765 0v-.6679678c-.1054688.1113281-.2324219.2197266-.3828125.3251944-.1484375.1054688-.3232422.2011719-.5224609.2861328-.1992188.0839844-.4208984.1513672-.6630859.2011719-.2441406.0498047-.5146484.0751953-.8134766.0751953-.4746094 0-.9169922-.0644531-1.3271484-.1933594s-.7675781-.3222656-1.0722656-.5800772c-.3046875-.2578125-.5449219-.5751953-.7207031-.9541016-.1757812-.3769531-.2636719-.8183594-.2636719-1.3222656 0-.5273438.1054688-.9824219.3164062-1.3662109.2109375-.3847656.4882812-.7006836.8300781-.949707.34375-.2490234.7324219-.4321289 1.1699219-.5493164.4355469-.1171875.8828125-.1757812 1.3398438-.1757812.4394531 0 .8300781.0395508 1.1738281.1186523.3417969.0791016.6542969.1860352.9355469.3208008v-.4746094c0-.5039062-.1435547-.8730469-.4306641-1.1074219s-.6972656-.3515625-1.2304688-.3515625c-.5449219 0-1.0458984.0791016-1.5029297.2373047s-.9023438.3867188-1.3359375.6855469l-.7207031-1.8896484c.2167969-.1464844.4609375-.2856445.734375-.4174805.2714844-.1318359.5664062-.2475586.8828125-.347168s.6542969-.1772461 1.015625-.2329102c.359375-.0556641.7363281-.0834961 1.1289062-.0834961.2753906 0 .5595703.0146484.8525391.0439453s.578125.0878906.8564453.1757812.5419922.2138672.7910156.3779297.4677734.3764648.6552734.637207.3349609.5800781.4443359.9580078c.1074219.3779297.1621094.8276367.1621094 1.3491211v5.8710928h-2.3027343zm-1.9335937-1.8369131c.4277344 0 .7998047-.0751953 1.1162109-.2236328.3164062-.1503906.5888672-.3271484.8173828-.5322266v-.9931641c-.2402344-.0878906-.5087891-.1591797-.8046875-.2148438s-.5986328-.0839844-.9091797-.0839844c-.2402344 0-.4677734.0195312-.6806641.0566406-.2148438.0390625-.4023438.1005859-.5625.1855469-.1621094.0849609-.2890625.1943359-.3828125.3291016s-.140625.2958984-.140625.4833984c0 .2988281.1318359.5390625.3955078.7207031s.647461.2724611 1.1513673.2724611zm12.4980469 1.8369131-2.5400391-4.8603506-.8613281.8261719v4.0341787h-2.3378906v-11.9003896l2.3378906-1.0986328v6.3017578l2.4609375-2.5048828h2.8125l-2.6982422 2.671875 3.3837891 6.5302725h-2.5576172zm8.296875.2197266c-.6679688 0-1.2675781-.1103516-1.796875-.3291016-.53125-.2207031-.9824219-.538085-1.3535156-.9541006-.3730469-.4160156-.6582031-.9228516-.8574219-1.5205078s-.2988281-1.2714844-.2988281-2.0214844.0996094-1.4223633.2988281-2.0170898.4863281-1.0986328.8613281-1.5117188.8271484-.7294922 1.3574219-.9492188 1.1269531-.3295898 1.7890625-.3295898c.5683594 0 1.1015625.0878906 1.5996094.2636719s.9287109.4423828 1.2919922.7998047.6503906.8071289.8613281 1.3491211.3164062 1.1821289.3164062 1.9204102c0 .1816406-.0029297.3969727-.0087891.6455078-.0058594.25-.0263672.4970703-.0615234.7431641h-5.9941406c.0234375.2988281.09375.5625.2109375.7910156s.2646484.421875.4443359.5800781c.1777344.1582031.3818359.2783203.6103516.3603516s.4716797.1230469.7294922.1230469c.421875 0 .7910156-.0751953 1.1074219-.2236328.3164062-.1503906.6064453-.3916016.8701172-.7255859l1.4414062 1.4501953c-.3867188.4746094-.8613281.8525391-1.4238281 1.1337881-.5625.2812499-1.2275391.4218749-1.9951172.4218749zm0-7.58496c-.5507812 0-1.0009766.1376953-1.3496094.4130859s-.5576172.703125-.6279297 1.2832032h3.7617188c-.0761719-.5449219-.2753906-.9638672-.5976562-1.2568359s-.7177735-.4394532-1.1865235-.4394532zm6.2314453 7.3652334v-9.2021475h2.3378906v.8173828c.1289062-.2929688.3320312-.5375977.6113281-.7338867.2773438-.1962891.6425781-.2944336 1.09375-.2944336.3808594 0 .7216797.0615234 1.0234375.1845703s.5849609.2958984.8486328.5185547l-.3164062 2.1357422c-.2226562-.1523438-.4677734-.2797852-.7333984-.3823242-.2675781-.1025391-.5820312-.1538086-.9453125-.1538086-.2050781 0-.4033203.0292969-.59375.0878906s-.3583984.1611328-.5048828.3076172-.2636719.3486328-.3515625.6064453-.1318359.5830078-.1318359.9755859v5.1328115h-2.3378907zm12.5068359-6.6621084c-.0878906-.0878906-.1894531-.1787109-.3027344-.2724609-.1152344-.09375-.2451172-.1772461-.3916016-.2504883s-.3115234-.1333008-.4970703-.1801758c-.1835938-.046875-.3847656-.0703125-.6015625-.0703125-.3515625 0-.6357422.0585938-.8525391.1757812s-.3251953.2871094-.3251953.5097656c0 .1230469.0498047.2373047.1494141.3427734s.2333984.2021484.3994141.2900391c.1679688.0878906.359375.1713867.5761719.2504883s.4423828.1567383.6767578.2329102c.3925781.1289062.7714844.2753906 1.1376953.4394531s.6884766.3632812.9667969.5976562.5019531.515625.6679688.84375c.1679687.3281251.2509765.7207032.2509765 1.1777345 0 .4511719-.0849609.8496094-.2548828 1.1953125s-.4121094.6376953-.7246094.8740234c-.3144531.2382803-.6923828.4179678-1.1347656.5410147s-.9355469.1845703-1.4804688.1845703c-.375 0-.7421875-.0400391-1.1035156-.1181641-.359375-.0800781-.7011719-.1904297-1.0234375-.3339844s-.6152344-.3183584-.8789062-.5234365-.4863281-.4335938-.6679688-.6855469l1.546875-1.3095703c.0996094.09375.2207031.1982422.3652344.3115234.1425781.1152344.3066406.2216797.4921875.3212891.1835938.0996094.3867188.1835938.6054688.2509766.2207031.0673828.453125.1005859.6992188.1005859.4042969 0 .7363281-.0595703.9980469-.1806641.2597656-.1191406.390625-.3291016.390625-.6279297 0-.1464844-.0458984-.2783203-.1367188-.3955078s-.2207031-.2265625-.390625-.3300781c-.1699219-.1015625-.3779297-.203125-.6240234-.3027344s-.5244141-.2050781-.8349609-.3164062c-.4335938-.1582031-.8261719-.3222656-1.1777344-.4921875s-.6503906-.3647461-.8964844-.5844727-.4355469-.4760742-.5664062-.769043c-.1328125-.2929688-.1982422-.6445312-.1982422-1.0546875 0-.421875.0878906-.7939453.2636719-1.1162109s.4140625-.5932617.7158203-.8129883.65625-.3852539 1.0644531-.496582c.40625-.1113281.8417969-.1669922 1.3046875-.1669922.3925781 0 .7587891.0410156 1.0986328.1230469s.6484375.1904297.9267578.3251953.5292969.2915039.7519531.4702148.4189453.3647461.5888672.5581055z"/></g></svg>