<svg enable-background="new 0 0 146 34" viewBox="0 0 146 34" xmlns="http://www.w3.org/2000/svg" xmlns:xlink="http://www.w3.org/1999/xlink"><linearGradient id="a" gradientTransform="matrix(24.0940018 0 0 -10.7950001 5187.931641 4346.225098)" gradientUnits="userSpaceOnUse" x1="-214.126267" x2="-214.626267" y1="399.643341" y2="400.509369"><stop offset="0" stop-color="#158f8f"/><stop offset="1" stop-color="#7ce986"/></linearGradient><linearGradient id="b" gradientTransform="matrix(18.0350304 0 0 -21.0689049 3829.430176 8821.858398)" gradientUnits="userSpaceOnUse" x1="-211.013367" x2="-211.513367" y1="417.886871" y2="418.752899"><stop offset="0" stop-color="#54dafc"/><stop offset="1" stop-color="#5a65fb"/></linearGradient><linearGradient id="c" gradientTransform="matrix(18.0155067 0 0 -21.0543785 3811.47168 8828.442383)" gradientUnits="userSpaceOnUse" x1="-211.257797" x2="-210.757797" y1="417.657227" y2="418.523254"><stop offset="0" stop-color="#ae39e7"/><stop offset=".4" stop-color="#cd52d1"/><stop offset="1" stop-color="#ec6bbb"/></linearGradient><path clip-rule="evenodd" d="m38.8670006 32.5759926c.0610008.1300011.1020012.2709999.1020012.4239998 0 .5522842-.4477158 1-1 1l-.0060005-.0009995v.0009995h-22.085001l-.0010004-.0029984c-.5503197-.0027046-.996542-.446701-1.0019999-.9970016 0-.1599998.0469999-.3059998.1149998-.4399986l-.0039997-.0060005 4.9459991-8.5480003.0230007-.0130005c.3085537-.4790401.8381958-.7698174 1.407999-.7730007l.0270004-.0149994h11.1279984l.0340004.0189991c.5788345.0167217 1.1082573.330368 1.401001.8299999l4.9319992 8.4929981c0-.0000001-.0180015.0289993-.0179977.0290031z" fill="#1fd783" fill-rule="evenodd"/><path d="m38.8670006 32.5759926c.0610008.1300011.1020012.2709999.1020012.4239998 0 .5522842-.4477158 1-1 1l-.0060005-.0009995v.0009995h-22.085001l-.0010004-.0029984c-.5503197-.0027046-.996542-.446701-1.0019999-.9970016 0-.1599998.0469999-.3059998.1149998-.4399986l-.0039997-.0060005 4.9459991-8.5480003.0230007-.0130005c.3085537-.4790401.8381958-.7698174 1.407999-.7730007l.0270004-.0149994h11.1279984l.0340004.0189991c.5788345.0167217 1.1082573.330368 1.401001.8299999l4.9319992 8.4929981c0-.0000001-.0180015.0289993-.0179977.0290031z" fill="url(#a)"/><path clip-rule="evenodd" d="m31.1159992 20.9399929c-.1350727.074604-.2857971.116394-.4400005.1219997l-.0020008.0039997-9.9009991.0039997-.0690002-.0419998c-.5410004-.0359993-1.0569992-.3010006-1.3479996-.8029995l-.0030003-.0109997-.0039997-.0020008-5.5640001-9.605999v-.0089998c-.2799997-.4989996-.2519999-1.0670004-.0159998-1.5450001l-.0010004-.0459995 4.9499998-8.5670004.0289993.001c.0818233-.124281.1909256-.2282532.3190002-.304.4800072-.2772528 1.0938663-.1134977 1.3719997.366l.0020008.007h.0020008l11.0419998 19.0629997c.2764893.4780922.1130581 1.0898018-.3650322 1.366291-.0009879.000572-.0019778.0011404-.0029677.0017088z" fill="#229dd7" fill-rule="evenodd"/><path d="m31.1159992 20.9399929c-.1350727.074604-.2857971.116394-.4400005.1219997l-.0020008.0039997-9.9009991.0039997-.0690002-.0419998c-.5410004-.0359993-1.0569992-.3010006-1.3479996-.8029995l-.0030003-.0109997-.0039997-.0020008-5.5640001-9.605999v-.0089998c-.2799997-.4989996-.2519999-1.0670004-.0159998-1.5450001l-.0010004-.0459995 4.9499998-8.5670004.0289993.001c.0818233-.124281.1909256-.2282532.3190002-.304.4800072-.2772528 1.0938663-.1134977 1.3719997.366l.0020008.007h.0020008l11.0419998 19.0629997c.2764893.4780922.1130581 1.0898018-.3650322 1.366291-.0009879.000572-.0019778.0011404-.0029677.0017088z" fill="url(#b)"/><path clip-rule="evenodd" d="m17.8029995 23.5569916-.007.0079994v.0039997l-5.5550003 9.592001v.0009995l-.007.012001-.0080004.0050011c-.2939997.4900017-.8009996.7509995-1.3339996.7859993l-.04.0229988-9.9139992.012001-.014-.026001c-.1487667-.0086975-.2936737-.0507355-.424-.1230011-.4787977-.2752647-.6437931-.8865547-.3685275-1.3653526.0005078-.000885.001017-.0017662.0015275-.0026474l.004-.0050011-.001-.0009995 11.0389996-19.0620003.0270004-.0010004c.29-.4510002.8809996-.6050005 1.3509998-.335.1238804.0727329.2306356.1713028.3129997.2889996l.0100002-.0010004 4.9529991 8.5439987-.0020008.0809994c.2390001.4840002.267 1.0620012-.0239985 1.5650053z" fill="#15d783" fill-rule="evenodd"/><path d="m17.8029995 23.5569916-.007.0079994v.0039997l-5.5550003 9.592001v.0009995l-.007.012001-.0080004.0050011c-.2939997.4900017-.8009996.7509995-1.3339996.7859993l-.04.0229988-9.9139992.012001-.014-.026001c-.1487667-.0086975-.2936737-.0507355-.424-.1230011-.4787977-.2752647-.6437931-.8865547-.3685275-1.3653526.0005078-.000885.001017-.0017662.0015275-.0026474l.004-.0050011-.001-.0009995 11.0389996-19.0620003.0270004-.0010004c.29-.4510002.8809996-.6050005 1.3509998-.335.1238804.0727329.2306356.1713028.3129997.2889996l.0100002-.0010004 4.9529991 8.5439987-.0020008.0809994c.2390001.4840002.267 1.0620012-.0239985 1.5650053z" fill="url(#c)"/><path d="m57.1728516 23.9122238c-.765625 0-1.4609375-.140625-2.0859375-.421875s-1.1582031-.6933594-1.5996094-1.2363281-.7832031-1.2148438-1.0253906-2.015625-.3632812-1.7207031-.3632812-2.7592773c0-1 .1289062-1.8964834.3867188-2.6894522s.6132812-1.4648438 1.0664062-2.015625.9902344-.9726562 1.6113281-1.265625 1.2988281-.4394531 2.0332031-.4394531c.6015625 0 1.1210938.1074219 1.5585938.3222656s.7890625.4980469 1.0546875.8496094v-4.5351563l3.1171875-1.4179688v17.331543h-3.1171875v-.890625c-.25.375-.5957031.6660156-1.0371094.8730469s-.9746094.3105459-1.5996094.3105459zm.5039062-3c.5078125 0 .9335938-.0859375 1.2773438-.2578125s.6289062-.4140625.8554688-.7265625v-4.8510733c-.078125-.1171875-.1835938-.2363281-.3164062-.3574219s-.2910156-.2304688-.4746094-.328125-.3867188-.1757812-.609375-.234375-.4667969-.0878906-.7324219-.0878906c-.7890625 0-1.3945312.2929688-1.8164062.8789062s-.6328125 1.4296865-.6328125 2.531249c0 .5229492.0527344.9956055.1582031 1.4174805s.2617188.7832031.46875 1.0839844.4628906.53125.7675781.6914062.6562499.2402345 1.0546874.2402345zm21.5498047 2.7070313v-8.6362295c0-.09375.0019531-.203125.0058594-.328125s.0078125-.2519531.0117188-.3808594.0078125-.2480469.0117188-.3574219.0097656-.1953125.0175781-.2578125c-.0859375.265625-.1699219.5039062-.2519531.7148438s-.1660156.4140625-.2519531.609375l-4.0771484 8.9291983-4.1015625-8.9291983c-.0859375-.1953125-.1699219-.3984375-.2519531-.609375s-.1660156-.4492188-.2519531-.7148438c.0078125.0625.0136719.1484375.0175781.2578125s.0078125.2285156.0117188.3574219.0078125.2558594.0117188.3808594.0058594.234375.0058594.328125v8.6362295h-3.2460938v-16.8041983h3.2929688l4.125 9.2695303c.0859375.203125.1640625.3964844.234375.5800781s.1367188.3730469.1992188.5683594c.0625-.1953125.1289062-.3847656.1992188-.5683594s.1484375-.3769531.234375-.5800781l4.1943359-9.2695303h3.09375v16.8041992h-3.2343754zm14.1679687 0v-.890625c-.140625.1484375-.3105469.2929688-.5097656.4335938s-.4316406.267578-.6972656.3808593-.5605469.203125-.8847656.2695312-.6855469.0996094-1.0839844.0996094c-.6328125 0-1.2226562-.0859375-1.7695312-.2578125s-1.0234375-.4296875-1.4296875-.7734375-.7265625-.7675781-.9609375-1.2714844-.3515625-1.0917969-.3515625-1.7636719c0-.703125.140625-1.3105469.421875-1.8222656.28125-.5112305.6503906-.9331055 1.1074219-1.2651367s.9765625-.5761719 1.5585938-.7324219c.5820312-.156249 1.1777344-.234374 1.7871094-.234374.5859375 0 1.1074219.0527344 1.5644531.1582031.4570312.1054678.8730469.2480459 1.2480469.4277334v-.6328115c0-.671875-.1914062-1.1640625-.5742188-1.4765625s-.9296875-.46875-1.640625-.46875c-.7265625 0-1.3945312.1054688-2.0039062.3164062s-1.203125.515625-1.78125.9140625l-.9609375-2.5195312c.2890625-.1953125.6152344-.3808594.9785156-.5566406s.7558594-.3300781 1.1777344-.4628906.8730469-.2363281 1.3535156-.3105469.9824219-.1113281 1.5058594-.1113281c.3671875 0 .7460938.0195312 1.1367188.0585938s.7714844.1171875 1.1425781.234375.7226562.2851562 1.0546875.5039062.6230469.5019531.8730469.8496094.4472656.7734375.5917969 1.2773438.2167969 1.1035156.2167969 1.7988281v7.8276358h-3.0703128zm-2.578125-2.4492188c.5703125 0 1.0664062-.0996094 1.4882812-.2988281s.7851562-.4355469 1.0898438-.7089844v-1.3242188c-.3203125-.1171875-.6777344-.2128906-1.0722656-.2871094s-.7988281-.1113281-1.2128906-.1113281c-.3203125 0-.6230469.0253906-.9082031.0761719s-.5351562.1328125-.75.2460938-.3847656.2597656-.5097656.4394531-.1875.3945312-.1875.6445312c0 .3984375.1757812.71875.5273438.9609375s.8632811.3632813 1.5351561.3632813zm16.6640626 2.4492188-3.3867188-6.4799805-1.1484375 1.1010742v5.3789062h-3.1171875v-15.8666982l3.1171875-1.4648438v8.4023438l3.28125-3.3398438h3.75l-3.5976562 3.5625 4.5117188 8.706542h-3.4101563zm11.0625.2929687c-.890625 0-1.6894531-.1464844-2.3964844-.4394531s-1.3085938-.7167969-1.8046875-1.2714844-.8769531-1.2304688-1.1425781-2.0273438-.3984375-1.6953125-.3984375-2.6948242c0-1 .1328125-1.8964834.3984375-2.6894522s.6484375-1.4648438 1.1484375-2.015625 1.1035156-.9726562 1.8105469-1.265625 1.5019531-.4394531 2.3847656-.4394531c.7578125 0 1.46875.1171875 2.1328125.3515625s1.2382812.5898438 1.7226562 1.0664062.8671875 1.0761719 1.1484375 1.7988281.421875 1.5761719.421875 2.5605459c0 .2421875-.0039062.5292969-.0117188.8613281-.0078125.331543-.0351562.6616211-.0820312.9897461h-7.9921875c.03125.3984375.125.75.28125 1.0546875s.3535156.5625.5917969.7734375.5097656.3710938.8144531.4804688.6289062.1640625.9726562.1640625c.5625 0 1.0546875-.0996094 1.4765625-.2988281s.8085938-.5214844 1.1601562-.9667969l1.921875 1.9335938c-.515625.6328125-1.1484375 1.1367188-1.8984375 1.5117188s-1.6367187.5625-2.6601561.5625zm0-10.112792c-.734375 0-1.3339844.1835938-1.7988281.5507812s-.7441407.9375001-.8378907 1.7109366h5.015625c-.1015625-.7265615-.3671875-1.2851553-.796875-1.6757803s-.9570312-.5859375-1.5820312-.5859375zm8.3085937 9.8198233v-12.269042h3.1171875v1.0898438c.171875-.390625.4433594-.7167969.8144531-.9785156s.8574219-.3925781 1.4589844-.3925781c.5078125 0 .9628906.0820312 1.3652344.2460938s.7792969.3945312 1.1308594.6914062l-.421875 2.8476562c-.296875-.203125-.6230469-.3730469-.9785156-.5097656s-.7753906-.2050781-1.2597656-.2050781c-.2734375 0-.5371094.0390625-.7910156.1171875s-.4785156.2148438-.6738281.4101562-.3515625.4648438-.46875.8085938-.1757812.7773428-.1757812 1.3007803v6.8432617h-3.1171877zm16.6757813-8.8823233c-.1171875-.1171875-.2519531-.2382812-.4042969-.3632812s-.3261719-.2363281-.5214844-.3339844-.4160156-.1777344-.6621094-.2402344-.5136719-.09375-.8027344-.09375c-.46875 0-.8476562.078125-1.1367188.234375s-.4335938.3828125-.4335938.6796875c0 .1640625.0664062.3164062.1992188.4570312s.3105469.2695312.5332031.3867188.4785156.2285156.7675781.3339844.5898438.2089834.9023438.3105459c.5234375.171875 1.0292969.3671875 1.5175781.5859375s.9179688.484375 1.2890625.796875.6679688.6870117.890625 1.1245117.3339845.9609375.3339845 1.5703125c0 .6015625-.1132812 1.1328125-.3398438 1.59375s-.5488281.8496094-.9667969 1.1660156-.921875.5566406-1.5117188.7207031-1.2480469.2460938-1.9746094.2460938c-.5 0-.9902344-.0527344-1.4707031-.1582031s-.9355469-.2539062-1.3652344-.4453125-.8203125-.4238281-1.171875-.6972656-.6484375-.578125-.890625-.9140625l2.0625-1.7460938c.1328125.125.2949219.2636719.4863281.4160156s.4101562.2949219.65625.4277344.515625.2441406.8085938.3339844.6035156.1347656.9316406.1347656c.5390625 0 .9824219-.0800781 1.3300781-.2402344s.5214844-.4394531.5214844-.8378906c0-.1953125-.0605469-.3710938-.1816406-.5273438s-.2949219-.3027344-.5214844-.4394531-.5039062-.2714844-.8320312-.4042969-.6992188-.2734375-1.1132812-.421875c-.578125-.2109375-1.1015625-.4296875-1.5703125-.6557617-.46875-.2265625-.8671875-.4863281-1.1953125-.7792969s-.5800781-.6347656-.7558594-1.0253897c-.1757812-.390625-.2636719-.859375-.2636719-1.40625 0-.5625.1171875-1.0585938.3515625-1.4882812s.5527344-.7910156.9550781-1.0839844.875-.5136719 1.4179688-.6621094 1.1230469-.2226562 1.7402344-.2226562c.5234375 0 1.0117188.0546875 1.4648438.1640625s.8652344.2539062 1.2363281.4335938.7050781.3886719 1.0019531.6269531.5585938.4863281.7851562.7441406z" fill="#fff"/></svg>